# xmcd
#
# Track frame offsets:
#	150
#	27441
#	56946
#	83830
#	127128
#	155863
#	188669
#	215673
#	231934
#	249184
#	267662
#	286109
#	309103
#
# Disc length: 4337 seconds
#
# Revision: 0
# Processed by: cddbd v1.5.1PL2 Copyright (c) Steve Scherf et al.
# Submitted via: EasyCDDAExtractor 8.2.2.1
#
DISCID=be10ef0d
DTITLE=Various Artist - DMC 2006-01-03
DYEAR=2006
DGENRE=Dance
TTITLE0=ALEX DELUXE - MY EMOTIONS(MANOX REMIX)
TTITLE1=PAULO BARBATO FEAT ALEX DONATI - HOUSE NATION(ALFRED AZETTO VS BOB RIF
TTITLE1=O DUB MIX)
TTITLE2=JAN WAYNE - TIME 2 FLY(XTENTED MIX)
TTITLE3=MICHAEL BUBLE - SAVE THE LASTDANCE FOR ME(RALPHI ROSARIO ANTHOMIC VOCA
TTITLE3=L)
TTITLE4=CLUB HOUSE - SPEED OF SOUND(JOY KITIKONTI MIX EXTENTED)
TTITLE5=BOB SINCLAIR FEAT GARY NESTA PINE - LOVE GENERATION(FULL INTENTION CLU
TTITLE5=B MIX)
TTITLE6=ORIGIN ALL - MOVE ON(CRISTIAN MARCHI MIX)
TTITLE7=AKON - POT OF GOLD(ALBUM VERSION)
TTITLE8=BACKKSTRET BOYS - I STILL(ALBUM VERSION)
TTITLE9=DNX VS. THE VOICE - IN THE GHETTO(RADIO MIX)
TTITLE10=JA RULE - EXODUS(RADIO EDIT)
TTITLE11=JOHN LEGEND - SO HIGH(CLOUD 9 REMIX)
TTITLE12=JUANES - VOLVERTE A VER(SINGLE VERSION)
EXTD=
EXTT0=
EXTT1=
EXTT2=
EXTT3=
EXTT4=
EXTT5=
EXTT6=
EXTT7=
EXTT8=
EXTT9=
EXTT10=
EXTT11=
EXTT12=
PLAYORDER=
